<?xml version="1.0" encoding="UTF-8" standalone="no"?>
<svg
   width="1702pt"
   height="663pt"
   viewBox="0 0 1702 663"
   version="1.1"
   id="svg122"
   sodipodi:docname="Aegisub-logo-plain.svg"
   inkscape:version="1.1.2 (0a00cf5339, 2022-02-04)"
   xmlns:inkscape="http://www.inkscape.org/namespaces/inkscape"
   xmlns:sodipodi="http://sodipodi.sourceforge.net/DTD/sodipodi-0.dtd"
   xmlns:xlink="http://www.w3.org/1999/xlink"
   xmlns="http://www.w3.org/2000/svg"
   xmlns:svg="http://www.w3.org/2000/svg">
  <defs
     id="defs126">
    <linearGradient
       inkscape:collect="always"
       id="linearGradient23763">
      <stop
         style="stop-color:#4c75a6;stop-opacity:1;"
         offset="0"
         id="stop23759" />
      <stop
         style="stop-color:#6885b5;stop-opacity:1"
         offset="0.59173727"
         id="stop23865" />
      <stop
         style="stop-color:#dae3f4;stop-opacity:1"
         offset="0.80609417"
         id="stop24059" />
      <stop
         style="stop-color:#b9c8e7;stop-opacity:1"
         offset="1"
         id="stop23761" />
    </linearGradient>
    <linearGradient
       inkscape:collect="always"
       xlink:href="#linearGradient23763"
       id="linearGradient62051"
       gradientUnits="userSpaceOnUse"
       x1="1050.3859"
       y1="89.941833"
       x2="1050.3859"
       y2="-140.46204"
       gradientTransform="matrix(0.75,0,0,0.75,0,360)" />
  </defs>
  <sodipodi:namedview
     id="namedview124"
     pagecolor="#ffffff"
     bordercolor="#666666"
     borderopacity="1.0"
     inkscape:pageshadow="2"
     inkscape:pageopacity="0.0"
     inkscape:pagecheckerboard="0"
     inkscape:document-units="pt"
     showgrid="false"
     inkscape:zoom="0.2824618"
     inkscape:cx="1290.44"
     inkscape:cy="10.620905"
     inkscape:window-width="1920"
     inkscape:window-height="1011"
     inkscape:window-x="0"
     inkscape:window-y="32"
     inkscape:window-maximized="1"
     inkscape:current-layer="svg122"
     showguides="true"
     inkscape:guide-bbox="true" />
  <g
     id="g67835">
    <path
       fill="#7a8f9a"
       opacity="1"
       d="m 976.1,0 h 3.09 c 1.62,0.65 2.45,2.24 2.3,3.95 0.02,156.1 0.01,312.2 0.01,468.3 -0.01,3.5 -0.01,7 0,10.5 -0.01,58.09 0.02,116.19 -0.01,174.28 0.68,4.34 -6.59,4.06 -6.47,0.07 -0.05,-58.12 0,-116.23 -0.02,-174.35 -0.01,-3.5 -0.01,-7 0,-10.5 0.01,-156.44 -0.01,-312.89 0.01,-469.33 0.07,-1.06 0.43,-2.03 1.09,-2.92 z"
       id="line" />
    <path
       fill="#000000"
       opacity="1"
       d="m 126.5,472.25 c 240.17,0.01 1335.33,0 1575.5,0 v 10.5 c -240.17,0 -1335.33,-0.01 -1575.5,0 -0.01,-3.5 -0.01,-7 0,-10.5 z"
       id="underline2"
       sodipodi:nodetypes="ccccc" />
    <g
       id="Aegi">
      <path
         fill="#e91d25"
         opacity="1"
         d="m 413.96,448.5 c -20.6,-0.11 -44.22,0.23 -64.81,-0.17 -9.16,-25.51 -17.18,-50.89 -26.53,-76.33 -45.01,-0.01 -87.01,0.01 -132.02,0 -20.95544,56.25265 -49.38932,104.7881 -78.2,151.85 -17.83,28.73 -40.02,55.6 -62.37,80.94 l -0.08191,-0.0661 C 102.55627,530.55931 134.25541,437.24279 162.02,359.99 199.86,253.4 234.02401,146.09089 269.66701,38.490446 318.33,175.11 366.1,311.82 413.96,448.5 Z M 203.01,337.53 310.58,335.46 262.29,181.87 Z"
         id="A"
         style="stroke:#000000;stroke-width:21;stroke-linecap:square;stroke-linejoin:miter;stroke-miterlimit:9.4;stroke-dasharray:none;stroke-opacity:1;paint-order:stroke fill markers"
         sodipodi:nodetypes="cccccccccccccc" />
      <path
         fill="#3fa548"
         opacity="1"
         d="m 520.02,227.76 c 16.51,-0.78 33.28,0.5 49.22,5.03 11.56,3.37 22.72,9.07 31.04,17.92 10.6,11.72 16.76,26.82 19.95,42.14 3.43,16.84 3.87,34.19 2.47,51.28 -47.29,0.27 -94.6,0.05 -141.89,0.11 0,37.62358 9.19811,57.28935 26.7,73.34 8.75,8.01 20.67,11.94 32.42,11.94 16.91,-0.27 34.11,-1.49 50.2,-7.1 7.33,-2.68 14.25,-6.32 21.21,-9.83 -2.14,8.47 -4.01,17.01 -6.3,25.44 -2.44,1.82 -5.5,2.58 -8.3,3.69 -15.29,5.51 -31.58,7.55 -47.74,8.01 -18.39,0.61 -37.01,0.16 -54.97,-4.22 -16.29,-3.87 -32.41,-11.12 -43.78,-23.75 -12.89,-14.5 -18.06,-34.03 -20.41,-52.87 -2.44,-22.29 -1.81,-45.03 2.56,-67.05 3.94,-19.4 12.04,-38.88 27.29,-52.1 16.37,-14.78 38.7,-20.96 60.33,-21.98 z m 4.96,18.77 c -13.45,1.91 -25.89,9.98 -32.71,21.78 -9.98,16.92 -11.24,37.24 -11.01,56.43 36.77,-0.09 73.57,0.23 110.33,-0.16 -0.34,-8.54 -0.24,-17.12 -1.54,-25.6 -1.98,-14.37 -6.97,-29.05 -17.61,-39.36 -12.43,-11.87 -30.86,-15.54 -47.46,-13.09 z"
         id="e"
         style="stroke:#000000;stroke-width:21;stroke-linecap:square;stroke-linejoin:miter;stroke-miterlimit:4;stroke-dasharray:none;stroke-opacity:1;paint-order:stroke markers fill"
         sodipodi:nodetypes="cccccccccccccccccccccccccc" />
      <path
         fill="#768fc8"
         opacity="1"
         d="m 752.07,228.02 c 13.24,1.33 25.76,6.38 37.52,12.38 l 8.60865,5.19497 L 804.37,228.74 c 18.14,0.09 36.29,-0.14 54.43,0.11 -0.12,78.04 -0.02,156.09 -0.05,234.13 0.57337,26.44306 -3.31517,57.49568 -20.67,75.07 -12.64,12.29 -29.8,18.34 -46.66,22.2 -26.69,6.13 -54.4,5.94 -81.46,2.68 -18.37,-2.68 -36.18,-8.12 -54.05,-13 -21.06,-5.81 -42,-12.14 -63.41,-16.59 -27.5,-5.92 -55.37,-10.25 -83.44,-12.15 -17.03,-1.4 -34.15,-1.11 -51.13,0.69 -35.99,3.69 -71.42,11.49 -106.4,20.53 -3.54,0.82 -6.98,2.12 -10.62,2.44 l -0.16805,-0.20692 c 0,0 21.71626,-11.50488 31.92805,-15.98308 36.66,-16.7 76.91,-26.93 117.39,-25.16 49.88,1.69 99.97,6.46 148.42,18.91 13.64,2.76 27.03,6.62 40.62,9.67 10.79,2.48 21.89,2.92 32.92,3.37 14.35,0.32 28.74,-0.34 42.97,-2.29 43.77938,-9.20004 48.01,-27.07322 48.01,-35.13 0.87,-21.5 1.64,-43.01 2.54,-64.52 -76.58773,35.19284 -141.59238,3.15223 -147.67,-77.65 -1.14,-17.88 -0.27,-35.88 2.46,-53.6 7.41341,-49.67101 41.20894,-79.71719 91.74,-74.24 z m -54.59,110.97 c 2.30338,33.26703 4.36748,75.45842 37.9,87.52 22.91246,5.72812 54.27001,3.64624 69.9,-12.43 -0.1,-47.05 0.04,-94.1 -0.07,-141.14 -9.08097,-12.6126 -19.05344,-23.98901 -43.28,-24.4 -52.39163,0 -62.63296,46.18103 -64.45,90.45 z"
         id="g"
         style="stroke:#000000;stroke-width:21;stroke-linecap:square;stroke-linejoin:miter;stroke-miterlimit:4;stroke-dasharray:none;stroke-opacity:1;paint-order:stroke markers fill"
         sodipodi:nodetypes="ccccccccccccccccccccccccccccccccc" />
      <path
         id="i"
         style="stroke:#000000;stroke-width:28;stroke-linecap:square;stroke-linejoin:miter;stroke-miterlimit:4;stroke-dasharray:none;stroke-opacity:1;paint-order:stroke markers fill;fill:#fcd406;fill-opacity:1"
         d="M 1238.5586 182.45703 C 1234.7478 182.44328 1230.9503 182.81953 1227.3203 183.51953 C 1209.9603 186.55953 1197.1599 202.98708 1195.6133 220.09375 C 1193.0533 239.57375 1206.0529 260.62641 1225.5996 265.06641 C 1239.8929 268.11974 1256.7207 266.16083 1267.334 255.1875 C 1283.1607 239.52083 1283.9861 211.53333 1269.0527 195 C 1261.5427 186.06 1249.9911 182.49828 1238.5586 182.45703 z M 1202.0137 305 C 1201.987 402.10667 1201.974 499.22732 1202.0273 596.33398 C 1225.7873 596.32065 1249.5603 596.34732 1273.3203 596.33398 C 1273.3336 499.22732 1273.3336 402.10667 1273.3203 305 C 1249.5603 304.98667 1225.787 305 1202.0137 305 z "
         transform="scale(0.75)" />
    </g>
    <g
       id="sub">
      <path
         id="s"
         style="fill:url(#linearGradient62051);fill-opacity:1;stroke:#435f7f;stroke-width:21;stroke-linecap:square;stroke-linejoin:miter;stroke-miterlimit:4;stroke-dasharray:none;stroke-opacity:1;paint-order:markers stroke fill"
         d="m 1099.8794,222.87304 c -26.3246,0.30536 -59.003,3.21143 -79.3198,15.65625 -20.1954,15.89138 -22.09881,27.61084 -21.5596,48.79102 1.4263,15.37416 8.3952,27.25544 21.9902,34.74024 13.63,7.43001 28.8405,11.28904 43.9805,14.26904 15.79,3.33 31.7095,6.74086 46.5997,13.13086 5.2698,2.23 10.089,5.78892 13.2289,10.62891 5.6801,8.39001 7.0605,18.96035 6.2505,28.86035 -0.92,9.99 -4.0393,20.48086 -11.7392,27.38086 -8.4501,7.84001 -20.3904,9.65939 -31.4004,10.87939 -17.4201,1.43 -35.0996,0.18002 -52.0796,-3.97998 -10.5901,-2.54 -20.3505,-7.46051 -30.4805,-11.27051 1.59,7.93 3.4705,15.80996 5.2105,23.70997 15.2837,5.89591 25.6172,8.0529 35.8696,9.83056 14.39,2.24 29.0001,2.84996 43.56,2.70996 18.5301,-0.56 37.3195,-2.76938 54.6695,-9.60937 10.56,-4.53999 21.25,-10.35073 27.9799,-19.99073 5.8002,-7.65 8.9302,-16.96928 10.7901,-26.27929 2.1901,-13.29 3.021,-27.31048 -1.459,-40.23047 -2.26,-7.25 -6.8214,-13.60036 -12.6914,-18.36035 -10.63,-8.46 -23.189,-14.24949 -36.189,-17.9795 -21.4801,-5.45041 -41.4455,-10.79826 -62.5005,-16.43994 -9.4416,-2.52988 -18.5958,-10.19004 -19.33,-22.89991 0,-12.84767 6.0439,-21.17213 14.0508,-25.22022 8.2699,-3.97 17.5198,-5.35031 26.5898,-6.07031 15.67,-0.88 31.4704,-0.4097 47.0303,1.80029 11.7401,1.55 23.07,5.27039 34.04,9.65039 l -6.8906,-23.47998 c -21.3969,-7.01959 -46.0107,-10.19261 -66.2007,-10.22754 z"
         sodipodi:nodetypes="cccccccccccccccccccccccccccccc" />
      <path
         style="fill:url(#linearGradient62051);fill-opacity:1;stroke:#435f7f;stroke-width:21;stroke-linecap:square;stroke-linejoin:miter;stroke-miterlimit:4;stroke-dasharray:none;stroke-opacity:1;paint-order:markers stroke fill"
         d="m 1218.7895,226.24072 c -0.1,14 -0.02,27.98949 -0.04,41.97949 -0.02,2.46 -0.01,4.92014 0.01,7.39014 -0.04,2.5 -0.04,5.00025 0.01,7.51025 -0.07,2.96001 -0.031,5.92893 0.01,8.89893 -0.09,3.27 -0.03,6.54006 0.01,9.81006 -0.1699,3.34 -0.089,6.68979 0.211,10.02978 v 0 c -0.6,23.37 -0.061,46.80092 -0.2608,70.19092 -0.2299,12.14 0.6497,24.82952 6.4497,35.74952 6.99,14.19 21.6099,23.3898 36.8599,26.2998 10.48,2.3 21.2506,1.32998 31.8706,0.97998 13.98,-0.94 28.1004,-2.80901 41.2105,-7.97901 7.24,-2.82999 14.489,-5.80089 21.249,-9.67089 4.71,-2.55 8.0912,-6.87912 12.6812,-9.59913 0.48,8.95001 -0.08,17.93014 0.29,26.89014 12.44,0.05 24.8888,0.11949 37.3388,-0.0205 0.08,-44.97 0.1905,-89.9509 -0.04,-134.9209 0.22,-5.31999 0.3804,-10.65876 0.1303,-15.98877 0,-5.16999 0.48,-10.42052 -0.06,-15.54052 0.18,-17.32 -0.061,-34.66024 0.019,-51.99023 -12.4999,-0.01 -24.9894,-0.02 -37.4794,0 0.1,17.14999 -0.2197,34.30091 0.07,51.44091 -0.5799,5.32 -0.1498,10.68954 -0.1098,16.01953 -0.25,4.99001 -0.1599,9.99975 0.1201,14.98975 -0.25,25.75 -0.031,51.51025 -0.091,77.26025 -0.17,5.52 -3.4391,10.31042 -6.539,14.67041 -4.7901,6.17001 -9.9601,12.4401 -17.0201,16.1001 -8.48,4.81 -18.3604,6.20865 -27.9404,6.86865 -10.55,0.7 -21.5804,-1.78929 -30.0704,-8.27929 -8.7199,-6.3 -14.4996,-16.5894 -14.8695,-27.3794 -0.2001,-26.39 0.1293,-52.80066 -0.1407,-79.18066 0.25,-5.02 0.3311,-10.06057 0.1011,-15.08057 -0.02,-5 0.6296,-10.11981 -0.1304,-15.0498 0.36,-17.45001 -0.03,-34.91988 0.1,-52.37988 -17.98,-0.02 -35.9597,8.9e-4 -53.9497,-0.0191 z"
         id="u"
         sodipodi:nodetypes="ccccccccccccccccccccccccccccccccccccc" />
      <path
         id="b"
         style="fill:url(#linearGradient62051);fill-opacity:1;stroke:#435f7f;stroke-width:21;stroke-linecap:square;stroke-linejoin:miter;stroke-miterlimit:4;stroke-dasharray:none;stroke-opacity:1;paint-order:markers stroke fill"
         d="m 1447.7593,134.77002 c -0.02,44.37 -0.01,88.74035 0,133.11035 -0.03,2.69 -0.02,5.39034 0,8.09033 -0.04,2.64 -0.04,5.28945 0.011,7.93946 -0.06,2.65 -0.04,5.2997 0.01,7.9497 -0.1,3.37 -0.031,6.74035 0.02,10.11035 -0.1599,3.29001 -0.08,6.59038 0.1099,9.88038 -0.36,20.39001 -0.06,40.80996 -0.1597,61.20996 0.16,23.88 -0.3308,47.7899 0.2593,71.6499 17.8899,0.09 35.7907,0.0903 53.6807,0.0103 0.32,-6.92001 -0.3411,-13.85073 0.3588,-20.74073 4.3701,3.61 7.6501,8.46942 12.5802,11.39942 7.65,4.2 15.6111,8.23054 24.391,9.31054 21.48,3.08001 44.0391,1.07039 64.0592,-7.59961 16.7799,-7.09 27.8604,-22.91985 34.9203,-39.10986 7.68,-18.61999 9.8302,-38.98116 10.4502,-58.95117 -0.14,-11.67 0.4606,-23.4288 -1.0195,-35.02881 -0.1699,-2.67999 -0.5311,-5.35047 -1.021,-7.98047 -0.13,-1.9 -0.5891,-3.74036 -0.8291,-5.61035 -0.45,-2.16 -0.8912,-4.2992 -1.4312,-6.4292 -0.5799,-2.25999 -1.0894,-4.52979 -1.5893,-6.7998 l -0.4995,0.019 c -0.2201,-1.01001 -0.3612,-2.0193 -0.4512,-3.0293 -0.8001,-1.94 -1.5699,-3.88033 -2.2998,-5.84033 -6.22,-14.57 -15.9203,-29.03047 -30.8203,-35.73047 -12.18,-5.1 -25.4192,-7.19936 -38.5591,-7.58936 -16.15,-0.28 -32.5299,1.02918 -48,5.90918 -7.0899,2.09 -13.5606,5.6909 -20.1606,8.9209 -0.05,-35.02 -0.01,-70.04031 -0.019,-105.07031 -18,-0.04 -35.9912,-0.03 -53.9912,0 z m 100.522,109.31396 v 0 c 9.18,-0.0312 18.3229,1.44647 26.9179,4.87647 9.3799,3.72 17.3591,10.79933 21.9389,19.81934 0.9,1.81998 1.7911,3.67054 2.5811,5.56054 0.37,0.97 0.7599,1.94994 1.1499,2.93994 0.79,2.18001 1.5199,4.38963 2.19,6.61963 0.75,2.63 1.4194,5.27996 1.9995,7.95996 0.42,2.08 0.7305,4.16979 1.0605,6.27979 0.61,3.66999 1.1888,7.36008 1.5088,11.08008 1.44,22.49 1.1407,45.37064 -4.0092,67.41064 -3.6801,15.24 -10.7101,30.90906 -24.46,39.53906 -15.93,9.68 -36.5801,11.69006 -53.8901,4.56006 -6.5901,-2.57 -12.4203,-6.71906 -17.9502,-11.03906 -2.64,-2.22 -5.8001,-4.84016 -5.5401,-8.66016 -0.08,-30.7 0.031,-61.41963 -0.04,-92.11963 0.12,-5.06 0.1892,-10.10992 0.079,-15.16992 0.05,-5.75 0.3201,-11.51 -0.1098,-17.25 0.29,-4.17 0.079,-8.35002 0.019,-12.52002 -0.2499,-2.52 0.3397,-5.19082 2.4097,-6.84082 4.9399,-4.11 10.9709,-6.74963 17.0009,-8.86963 8.745,-2.605 17.9621,-4.14502 27.1421,-4.17627 z" />
    </g>
  </g>
</svg>
